<svg version="1.1" viewBox="0 0 96 96" xmlns="http://www.w3.org/2000/svg" xmlns:xlink="http://www.w3.org/1999/xlink" id="Icons_WinkingFaceSolid" overflow="hidden"><g><g><path d=" M 48 10 C 27 10 10 27 10 48 C 10 69 27 86 48 86 C 69 86 86 69 86 48 C 86 27 69 10 48 10 Z M 24 42 C 24 40.9 24.9 40 26 40 L 38 40 C 39.1 40 40 40.9 40 42 C 40 43.1 39.1 44 38 44 L 26 44 C 24.9 44 24 43.1 24 42 Z M 67.8 64.2 C 63.2 70.2 56.1 74 48 74 C 39.9 74 32.8 70.2 28.2 64.2 C 28 63.9 27.8 63.5 27.8 63 C 27.8 61.9 28.7 61 29.8 61 C 30.5 61 31.1 61.3 31.4 61.8 C 35.2 66.8 41.2 69.9 48 69.9 C 54.8 69.9 60.7 66.8 64.6 61.8 C 65 61.3 65.6 61 66.2 61 C 67.3 61 68.2 61.9 68.2 63 C 68.2 63.5 68 63.9 67.8 64.2 Z M 64 48 C 60.7 48 58 45.3 58 42 C 58 38.7 60.7 36 64 36 C 67.3 36 70 38.7 70 42 C 70 45.3 67.3 48 64 48 Z"/></g></g></svg>